<?xml version="1.0" encoding="utf-8"?>
<!-- Generator: Adobe Illustrator 16.0.0, SVG Export Plug-In . SVG Version: 6.00 Build 0)  -->
<!DOCTYPE svg PUBLIC "-//W3C//DTD SVG 1.1//EN" "http://www.w3.org/Graphics/SVG/1.1/DTD/svg11.dtd">
<svg version="1.1" id="Layer_1" xmlns="http://www.w3.org/2000/svg" xmlns:xlink="http://www.w3.org/1999/xlink" x="0px" y="0px"
	 width="318.096px" height="148.571px" viewBox="0 0 318.096 148.571" enable-background="new 0 0 318.096 148.571"
	 xml:space="preserve">
<g>
	<g>
		<path d="M135.034,67.821h-17.808l-3.416,9.296h-4.145l14.279-38.64h4.425l14.224,38.64h-4.144L135.034,67.821z M133.857,64.573
			l-7.728-21.168l-7.728,21.168H133.857z"/>
		<path d="M148.978,53.513c1.269-2.371,3.024-4.2,5.265-5.488c2.24-1.288,4.797-1.932,7.672-1.932c3.77,0,6.878,0.934,9.324,2.8
			c2.444,1.867,4.021,4.406,4.731,7.616h-4.2c-0.523-2.203-1.652-3.929-3.388-5.18c-1.736-1.25-3.892-1.876-6.468-1.876
			c-2.054,0-3.902,0.467-5.545,1.4c-1.643,0.934-2.939,2.324-3.892,4.172c-0.952,1.848-1.428,4.116-1.428,6.804
			s0.476,4.966,1.428,6.832c0.952,1.867,2.249,3.267,3.892,4.2c1.643,0.934,3.491,1.4,5.545,1.4c2.576,0,4.731-0.625,6.468-1.876
			c1.735-1.25,2.864-2.996,3.388-5.236h4.2c-0.71,3.136-2.296,5.656-4.76,7.56c-2.464,1.904-5.563,2.856-9.296,2.856
			c-2.875,0-5.432-0.644-7.672-1.932s-3.996-3.117-5.265-5.488c-1.27-2.37-1.903-5.142-1.903-8.316
			C147.074,58.656,147.708,55.884,148.978,53.513z"/>
		<path d="M183.305,53.513c1.269-2.371,3.024-4.2,5.265-5.488c2.239-1.288,4.796-1.932,7.672-1.932c3.771,0,6.878,0.934,9.323,2.8
			c2.445,1.867,4.022,4.406,4.732,7.616h-4.2c-0.523-2.203-1.651-3.929-3.388-5.18c-1.736-1.25-3.893-1.876-6.468-1.876
			c-2.054,0-3.902,0.467-5.544,1.4c-1.644,0.934-2.94,2.324-3.893,4.172c-0.952,1.848-1.428,4.116-1.428,6.804
			s0.476,4.966,1.428,6.832c0.952,1.867,2.249,3.267,3.893,4.2c1.642,0.934,3.49,1.4,5.544,1.4c2.575,0,4.731-0.625,6.468-1.876
			c1.736-1.25,2.864-2.996,3.388-5.236h4.2c-0.71,3.136-2.296,5.656-4.76,7.56c-2.464,1.904-5.563,2.856-9.296,2.856
			c-2.876,0-5.433-0.644-7.672-1.932c-2.24-1.288-3.996-3.117-5.265-5.488c-1.27-2.37-1.903-5.142-1.903-8.316
			C181.401,58.656,182.035,55.884,183.305,53.513z"/>
		<path d="M245.073,63.341h-25.368c0.112,2.315,0.672,4.293,1.68,5.936c1.008,1.643,2.333,2.884,3.977,3.724
			c1.642,0.84,3.434,1.26,5.376,1.26c2.538,0,4.676-0.616,6.412-1.848c1.735-1.232,2.884-2.893,3.443-4.984h4.145
			c-0.747,2.987-2.344,5.423-4.788,7.308c-2.446,1.886-5.517,2.828-9.212,2.828c-2.876,0-5.451-0.644-7.729-1.932
			s-4.06-3.117-5.348-5.488c-1.288-2.37-1.932-5.142-1.932-8.316c0-3.173,0.634-5.954,1.903-8.344
			c1.269-2.389,3.043-4.219,5.32-5.488c2.276-1.269,4.872-1.904,7.784-1.904s5.46,0.635,7.644,1.904
			c2.185,1.27,3.864,2.978,5.04,5.124c1.176,2.147,1.764,4.527,1.764,7.14C245.185,61.605,245.147,62.632,245.073,63.341z
			 M239.837,54.325c-0.952-1.605-2.25-2.818-3.892-3.64c-1.644-0.821-3.436-1.232-5.376-1.232c-2.912,0-5.396,0.934-7.448,2.8
			c-2.054,1.867-3.192,4.499-3.416,7.896h21.504C241.246,57.873,240.789,55.931,239.837,54.325z"/>
		<path d="M254.284,75.129c-2.222-1.624-3.463-3.836-3.724-6.636h4.031c0.187,1.718,0.999,3.108,2.437,4.172
			c1.437,1.064,3.368,1.596,5.796,1.596c2.128,0,3.798-0.504,5.012-1.512c1.213-1.008,1.82-2.258,1.82-3.752
			c0-1.044-0.336-1.904-1.008-2.576c-0.673-0.672-1.522-1.204-2.549-1.596s-2.417-0.812-4.172-1.26
			c-2.277-0.597-4.125-1.195-5.544-1.792c-1.419-0.597-2.623-1.484-3.611-2.66c-0.99-1.176-1.484-2.753-1.484-4.732
			c0-1.493,0.448-2.875,1.344-4.144c0.896-1.269,2.165-2.277,3.809-3.024c1.642-0.747,3.509-1.12,5.6-1.12
			c3.285,0,5.936,0.831,7.952,2.492c2.016,1.662,3.099,3.948,3.248,6.86h-3.92c-0.112-1.792-0.813-3.238-2.101-4.34
			c-1.288-1.101-3.052-1.652-5.292-1.652c-1.979,0-3.584,0.467-4.815,1.4c-1.232,0.934-1.849,2.091-1.849,3.472
			c0,1.195,0.364,2.175,1.093,2.94c0.728,0.766,1.633,1.363,2.716,1.792c1.082,0.43,2.538,0.906,4.368,1.428
			c2.202,0.598,3.956,1.176,5.264,1.736c1.307,0.56,2.427,1.382,3.36,2.464c0.933,1.083,1.418,2.52,1.456,4.312
			c0,1.644-0.448,3.108-1.345,4.396c-0.896,1.288-2.146,2.306-3.752,3.052c-1.605,0.746-3.453,1.12-5.544,1.12
			C259.37,77.565,256.505,76.753,254.284,75.129z"/>
		<path d="M282.844,75.129c-2.222-1.624-3.463-3.836-3.724-6.636h4.031c0.187,1.718,0.999,3.108,2.437,4.172
			c1.437,1.064,3.368,1.596,5.796,1.596c2.128,0,3.798-0.504,5.012-1.512c1.213-1.008,1.82-2.258,1.82-3.752
			c0-1.044-0.336-1.904-1.008-2.576c-0.673-0.672-1.522-1.204-2.549-1.596s-2.417-0.812-4.172-1.26
			c-2.277-0.597-4.125-1.195-5.544-1.792c-1.419-0.597-2.623-1.484-3.611-2.66c-0.99-1.176-1.484-2.753-1.484-4.732
			c0-1.493,0.448-2.875,1.344-4.144c0.896-1.269,2.165-2.277,3.809-3.024c1.642-0.747,3.509-1.12,5.6-1.12
			c3.285,0,5.936,0.831,7.952,2.492c2.016,1.662,3.099,3.948,3.248,6.86h-3.92c-0.112-1.792-0.813-3.238-2.101-4.34
			c-1.288-1.101-3.052-1.652-5.292-1.652c-1.979,0-3.584,0.467-4.815,1.4c-1.232,0.934-1.849,2.091-1.849,3.472
			c0,1.195,0.364,2.175,1.093,2.94c0.728,0.766,1.633,1.363,2.716,1.792c1.082,0.43,2.538,0.906,4.368,1.428
			c2.202,0.598,3.956,1.176,5.264,1.736c1.307,0.56,2.427,1.382,3.36,2.464c0.933,1.083,1.418,2.52,1.456,4.312
			c0,1.644-0.448,3.108-1.345,4.396c-0.896,1.288-2.146,2.306-3.752,3.052c-1.605,0.746-3.453,1.12-5.544,1.12
			C287.93,77.565,285.064,76.753,282.844,75.129z"/>
	</g>
	<g>
		<g id="XMLID_12_">
			<g id="XMLID_13_">
				<path id="XMLID_21_" fill-rule="evenodd" clip-rule="evenodd" fill="#211915" d="M54.484,37.632
					c6.342,0,11.515-5.174,11.515-11.517c0-6.341-5.173-11.515-11.515-11.515c-6.344,0-11.517,5.174-11.517,11.515
					C42.968,32.458,48.141,37.632,54.484,37.632z"/>
				<path id="XMLID_20_" fill="#211915" d="M59.443,89.995c0,2.739-2.221,4.958-4.961,4.958c-2.737,0-4.957-2.22-4.957-4.958V47.893
					c0-2.739,2.22-4.958,4.957-4.958c2.74,0,4.961,2.219,4.961,4.958V89.995z"/>
				<path id="XMLID_19_" fill="#211915" d="M54.484,94.953c-2.739,0-4.959-2.22-4.959-4.958c0-2.739,2.22-4.959,4.959-4.959h42.1
					c2.739,0,4.961,2.22,4.961,4.959c0,2.739-2.222,4.958-4.961,4.958H54.484z"/>
				<path id="XMLID_18_" fill="#211915" d="M54.484,70.019c-2.739,0-4.959-2.221-4.959-4.959c0-2.738,2.22-4.958,4.959-4.958h36.277
					c2.739,0,4.959,2.22,4.959,4.958c0,2.739-2.22,4.959-4.959,4.959H54.484z"/>
				<path id="XMLID_17_" fill="#211915" d="M116.764,116.545c1.314,2.401,0.436,5.414-1.968,6.731
					c-2.401,1.315-5.414,0.437-6.731-1.965L92.408,92.731c-1.316-2.4-0.436-5.415,1.966-6.731c2.402-1.315,5.416-0.436,6.732,1.967
					L116.764,116.545z"/>
				<path id="XMLID_16_" fill="#211915" d="M119.465,109.41c2.4-1.316,5.414-0.435,6.73,1.967c1.316,2.399,0.436,5.414-1.967,6.731
					l-9.433,5.168c-2.401,1.315-5.414,0.437-6.731-1.965c-1.315-2.403-0.435-5.417,1.967-6.733L119.465,109.41z"/>
				<path id="XMLID_14_" fill-rule="evenodd" clip-rule="evenodd" fill="#4086F4" d="M44.792,69.891
					C33.328,73.464,25.008,84.16,25.008,96.799c0,15.564,12.617,28.182,28.18,28.182c14.59,0,26.591-11.085,28.037-25.295h9.025
					c-1.473,19.181-17.502,34.285-37.063,34.285c-20.529,0-37.172-16.641-37.172-37.172c0-17.643,12.291-32.414,28.776-36.221
					V69.891z"/>
			</g>
		</g>
		<g>
			<g>
				<path fill="#4086F4" d="M101.384,123.627c-2.56-1.419-4.57-3.43-6.03-6.03c-1.46-2.6-2.189-5.6-2.189-9
					c0-3.399,0.75-6.399,2.25-9c1.5-2.6,3.549-4.609,6.15-6.03c2.6-1.419,5.499-2.13,8.699-2.13s6.1,0.71,8.7,2.13
					c2.6,1.42,4.65,3.43,6.15,6.03c1.5,2.601,2.25,5.601,2.25,9c0,3.4-0.771,6.4-2.31,9c-1.541,2.601-3.621,4.611-6.24,6.03
					c-2.621,1.42-5.551,2.13-8.791,2.13C106.823,125.757,103.943,125.047,101.384,123.627z M114.314,117.327
					c1.34-0.74,2.409-1.85,3.209-3.33c0.801-1.479,1.201-3.279,1.201-5.4c0-3.159-0.831-5.589-2.49-7.29
					c-1.66-1.7-3.69-2.55-6.09-2.55c-2.4,0-4.41,0.85-6.03,2.55c-1.62,1.701-2.431,4.131-2.431,7.29c0,3.161,0.79,5.59,2.371,7.29
					c1.579,1.701,3.569,2.55,5.969,2.55C111.544,118.437,112.974,118.067,114.314,117.327z"/>
				<path fill="#4086F4" d="M161.563,95.247c2.439,2.5,3.659,5.991,3.659,10.47v19.5h-8.399v-18.36c0-2.64-0.66-4.67-1.979-6.09
					c-1.32-1.419-3.121-2.13-5.4-2.13c-2.32,0-4.15,0.711-5.49,2.13c-1.34,1.42-2.01,3.45-2.01,6.09v18.36h-8.4v-33.24h8.4v4.14
					c1.119-1.44,2.55-2.57,4.29-3.39c1.739-0.819,3.649-1.23,5.729-1.23C155.924,91.497,159.123,92.748,161.563,95.247z"/>
				<path fill="#4086F4" d="M203.862,111.117h-24.299c0.199,2.4,1.039,4.281,2.52,5.64c1.479,1.36,3.3,2.04,5.46,2.04
					c3.12,0,5.34-1.34,6.66-4.02h9.06c-0.959,3.201-2.8,5.83-5.52,7.89c-2.721,2.061-6.061,3.09-10.02,3.09
					c-3.201,0-6.07-0.71-8.611-2.13c-2.54-1.419-4.52-3.43-5.939-6.03c-1.42-2.6-2.13-5.6-2.13-9c0-3.439,0.699-6.459,2.101-9.06
					c1.398-2.6,3.359-4.599,5.879-6c2.521-1.399,5.42-2.1,8.701-2.1c3.158,0,5.989,0.68,8.489,2.04c2.499,1.36,4.44,3.291,5.82,5.79
					c1.38,2.5,2.069,5.37,2.069,8.61C204.103,109.077,204.022,110.157,203.862,111.117z M195.403,105.477
					c-0.041-2.16-0.82-3.89-2.34-5.19c-1.521-1.299-3.381-1.95-5.58-1.95c-2.08,0-3.831,0.63-5.25,1.89
					c-1.421,1.26-2.291,3.011-2.61,5.25H195.403z"/>
				<path fill="#4086F4" d="M210.162,99.567c1.399-2.58,3.339-4.58,5.82-6c2.479-1.419,5.319-2.13,8.52-2.13
					c4.119,0,7.53,1.03,10.23,3.09c2.699,2.061,4.509,4.95,5.43,8.67h-9.061c-0.479-1.44-1.289-2.57-2.43-3.39
					c-1.14-0.819-2.55-1.23-4.229-1.23c-2.4,0-4.301,0.87-5.7,2.61c-1.4,1.74-2.101,4.21-2.101,7.41c0,3.161,0.7,5.61,2.101,7.35
					c1.399,1.74,3.3,2.61,5.7,2.61c3.399,0,5.619-1.52,6.659-4.56h9.061c-0.921,3.6-2.74,6.46-5.46,8.58
					c-2.721,2.121-6.12,3.18-10.2,3.18c-3.2,0-6.04-0.71-8.52-2.13c-2.481-1.419-4.421-3.42-5.82-6
					c-1.401-2.58-2.101-5.589-2.101-9.03C208.062,105.157,208.761,102.147,210.162,99.567z"/>
				<path fill="#4086F4" d="M256.121,98.877v16.08c0,1.12,0.271,1.93,0.811,2.43c0.539,0.5,1.449,0.75,2.729,0.75h3.9v7.08h-5.28
					c-7.08,0-10.62-3.439-10.62-10.32v-16.02h-3.96v-6.9h3.96v-8.22h8.46v8.22h7.44v6.9H256.121z"/>
				<path fill="#4086F4" d="M269.471,99.537c1.34-2.6,3.159-4.599,5.46-6c2.3-1.399,4.869-2.1,7.71-2.1c2.479,0,4.649,0.5,6.51,1.5
					c1.86,1,3.35,2.26,4.47,3.78v-4.74h8.46v33.24h-8.46v-4.86c-1.08,1.56-2.57,2.85-4.47,3.87c-1.9,1.02-4.09,1.53-6.57,1.53
					c-2.8,0-5.35-0.72-7.649-2.16c-2.301-1.44-4.12-3.47-5.46-6.09c-1.341-2.62-2.01-5.63-2.01-9.03
					C267.461,105.117,268.13,102.137,269.471,99.537z M292.421,103.347c-0.801-1.459-1.881-2.58-3.24-3.36
					c-1.36-0.78-2.82-1.17-4.38-1.17c-1.561,0-3,0.38-4.32,1.14c-1.32,0.76-2.391,1.87-3.21,3.33c-0.82,1.461-1.23,3.19-1.23,5.19
					c0,2.001,0.41,3.75,1.23,5.25c0.819,1.5,1.899,2.65,3.24,3.45c1.34,0.801,2.77,1.2,4.29,1.2c1.56,0,3.02-0.39,4.38-1.17
					c1.359-0.78,2.439-1.899,3.24-3.36c0.799-1.459,1.199-3.21,1.199-5.25S293.22,104.808,292.421,103.347z"/>
			</g>
		</g>
	</g>
</g>
</svg>
